<? xml version = "1.0"  encoding = "UTF-8" ?>
<svg width="2103" height="2109" xmlns="http://www.w3.org/2000/svg">
 <g>
  <title>Layer 1</title>
  <rect stroke="#000" stroke-width="4" id="svg_1" height="110" width="92" y="442.00006" x="621.00006" fill="#fff"/>
  <rect stroke="#000" stroke-width="4" id="svg_2" height="97" width="72" y="572.00006" x="637.00006" fill="#fff"/>
  <path stroke="#000" id="svg_4" d="m707,197.86364l409.09091,0l0,219.63636l-409.09091,0l0,-219.63636z" opacity="undefined" stroke-width="4" fill="#fff"/>
  <rect stroke="#000" id="svg_6" height="70" width="136" y="449.5" x="1013" stroke-width="4" fill="#fff"/>
  <rect id="svg_8" height="51.81818" width="109.09091" y="428.22734" x="1189.40905" stroke-width="4" stroke="#000" fill="#fff"/>
  <rect id="svg_10" height="28.18182" width="84.54546" y="490.95461" x="1193.95451" stroke-width="4" stroke="#000" fill="#fff"/>
  <path id="svg_12" d="m1308.5,410.0455l75.45455,0l0,79.09091l-75.45455,0l0,-79.09091z" opacity="undefined" stroke-width="4" stroke="#000" fill="#fff"/>
  <path id="svg_13" d="m1447.59082,383.68188l117.27274,0l0,84.54546l-117.27274,0l0,-84.54546z" opacity="undefined" stroke-width="4" stroke="#000" fill="#fff"/>
  <rect stroke="#000" id="svg_14" height="43.63637" width="115.45455" y="538.22734" x="1526.6818" stroke-width="4" fill="#fff"/>
  <rect id="svg_15" height="59.09091" width="138.18182" y="472.77279" x="1503.95452" stroke-width="4" stroke="#000" fill="#fff"/>
  <rect id="svg_16" height="45.45455" width="22.72727" y="592.7728" x="1526.68179" stroke-width="4" stroke="#000" fill="#fff"/>
  <rect id="svg_17" height="47.27273" width="20" y="650.95462" x="1539.40907" stroke-width="4" stroke="#000" fill="#fff"/>
  <rect id="svg_18" height="53.63637" width="31.81818" y="609.13643" x="1565.7727" stroke-width="4" stroke="#000" fill="#fff"/>
  <rect id="svg_19" height="40" width="62.72728" y="647.31825" x="1607.59089" stroke-width="4" stroke="#000" fill="#fff"/>
  <path id="svg_21" d="m1425.77265,495.50009l64.54545,0l0,127.27273l-116.36364,0l0.9091,-55.45455l51.36364,0.90909l-0.45455,-72.72727z" opacity="undefined" stroke-width="4" stroke="#000" fill="#fff"/>
  <rect id="svg_20" height="47.27273" width="52.72727" y="512.77279" x="1363.04542" stroke-width="4" stroke="#000" fill="#fff"/>
  <rect id="svg_22" height="32.72727" width="91.81819" y="573.68189" x="1241.22724" stroke-width="4" stroke="#000" fill="#fff"/>
  <rect stroke="#000" id="svg_23" height="16.36364" width="70" y="625.50007" x="1216.68178" stroke-width="4" fill="#fff"/>
  <rect id="svg_24" height="40" width="64.54546" y="639.13644" x="1275.77269" stroke-width="4" stroke="#000" fill="#fff"/>
  <rect stroke="#000" id="svg_25" height="64.54546" width="58.18183" y="705.50007" x="1239.40906" stroke-width="4" fill="#fff"/>
  <rect id="svg_26" height="65.45455" width="47.27273" y="697.31826" x="1312.13633" stroke-width="4" stroke="#000" fill="#fff"/>
  <rect id="svg_27" height="45.45455" width="53.63637" y="813.6819" x="1252.13633" stroke-width="4" stroke="#000" fill="#fff"/>
  <rect id="svg_28" height="50" width="69.09091" y="803.6819" x="1319.40906" stroke-width="4" stroke="#000" fill="#fff"/>
  <rect id="svg_29" height="81.81819" width="123.63637" y="769.13644" x="1416.68179" stroke-width="4" stroke="#000" fill="#fff"/>
  <rect id="svg_30" height="47.27273" width="41.81818" y="766.40917" x="1563.04543" stroke-width="4" stroke="#000" fill="#fff"/>
  <rect id="svg_31" height="44.54546" width="65.45455" y="720.04553" x="1608.49998" stroke-width="4" stroke="#000" fill="#fff"/>
  <rect id="svg_32" height="20" width="45.45455" y="780.04553" x="1614.86362" stroke-width="4" stroke="#000" fill="#fff"/>
  <rect stroke="#000" id="svg_33" height="41.81818" width="27.27273" y="851.86372" x="1590.31817" stroke-width="4" fill="#fff"/>
  <rect id="svg_34" height="30" width="59.09091" y="872.77281" x="1485.7727" stroke-width="4" stroke="#000" fill="#fff"/>
  <path id="svg_35" d="m1578.50002,878.22734l13.63637,54.54546l-50.90909,-0.00001l1.81818,-19.09091l12.72727,-10.45454l-0.90909,-23.86364l23.63636,-1.13636z" opacity="undefined" stroke-width="4" stroke="#000" fill="#fff"/>
  <rect id="svg_36" height="64.54546" width="65.45455" y="939.13645" x="1469.40906" stroke-width="4" stroke="#000" fill="#fff"/>
  <rect id="svg_37" height="48.18182" width="48.18182" y="1007.31827" x="1625.77271" stroke-width="4" stroke="#000" fill="#fff"/>
  <rect id="svg_38" height="30.90909" width="28.18182" y="957.31827" x="1643.95453" stroke-width="4" stroke="#000" fill="#fff"/>
  <rect stroke="#000" id="svg_39" height="306.36365" width="187.27275" y="812.7728" x="1749.40906" stroke-width="4" fill="#fff"/>
  <rect id="svg_41" height="0.90909" width="0" y="855.50008" x="1929.40908" stroke-width="4" stroke="#000" fill="#fff"/>
  <rect id="svg_42" height="32.72727" width="96.36364" y="570.95461" x="1012.13632" stroke-width="4" stroke="#000" fill="#fff"/>
  <rect id="svg_43" height="53.63637" width="36.36364" y="613.68189" x="953.04541" stroke-width="4" stroke="#000" fill="#fff"/>
  <rect id="svg_44" height="49.09091" width="53.63637" y="584.59098" x="1124.8636" stroke-width="4" stroke="#000" fill="#fff"/>
  <rect id="svg_45" height="63.63637" width="56.36364" y="716.40917" x="790.31813" stroke-width="4" stroke="#000" fill="#fff"/>
  <rect stroke="#000" id="svg_46" height="60" width="61.81818" y="795.50008" x="853.95449" stroke-width="4" fill="#fff"/>
  <path stroke="#000" id="svg_47" d="m894.86359,734.591l90.90909,0l0,73.63637l-63.63636,0l-0.90909,-17.72727l-26.36364,-1.13637l0,-54.77273z" opacity="undefined" stroke-width="4" fill="#fff"/>
  <rect id="svg_48" height="34.54546" width="37.27273" y="824.59099" x="938.49995" stroke-width="4" stroke="#000" fill="#fff"/>
  <rect id="svg_49" height="110.9091" width="47.27273" y="759.13644" x="1010.31814" stroke-width="4" stroke="#000" fill="#fff"/>
  <rect id="svg_50" height="111.81819" width="145.45455" y="746.40917" x="1072.13632" stroke-width="4" stroke="#000" fill="#fff"/>
  <rect stroke="#000" id="svg_51" height="37.27273" width="37.27273" y="642.7728" x="1157.59087" stroke-width="4" fill="#fff"/>
  <rect id="svg_52" height="26.36364" width="28.18182" y="697.31826" x="989.40904" stroke-width="4" stroke="#000" fill="#fff"/>
  <rect id="svg_53" height="28.18182" width="50.90909" y="698.22735" x="1027.59086" stroke-width="4" stroke="#000" fill="#fff"/>
  <rect id="svg_54" height="49.09091" width="66.36364" y="667.31825" x="1081.22723" stroke-width="4" stroke="#000" fill="#fff"/>
  <rect stroke="#000" id="svg_55" height="387.27274" width="208.18184" y="940.04554" x="742.13629" stroke-width="4" fill="#fff"/>
  <rect stroke="#000" id="svg_56" height="94.54546" width="102.72728" y="889.13645" x="955.77268" stroke-width="4" fill="#fff"/>
  <rect id="svg_57" height="44.54546" width="71.81818" y="895.50008" x="1066.68177" stroke-width="4" stroke="#000" fill="#fff"/>
  <rect stroke="#000" id="svg_58" height="90" width="68.18182" y="895.5001" x="1149.40905" stroke-width="4" fill="#fff"/>
  <rect id="svg_59" height="39.09091" width="47.27273" y="992.77281" x="963.9545" stroke-width="4" stroke="#000" fill="#fff"/>
  <rect id="svg_60" height="74.54546" width="100.9091" y="1053.68191" x="977.59086" stroke-width="4" stroke="#000" fill="#fff"/>
  <rect id="svg_61" height="92.72728" width="150.9091" y="1016.40918" x="1083.9545" stroke-width="4" stroke="#000" fill="#fff"/>
  <rect id="svg_62" height="36.36364" width="46.36364" y="1059.13645" x="1246.68178" stroke-width="4" stroke="#000" fill="#fff"/>
  <rect id="svg_63" height="22.72727" width="75.45455" y="1095.50009" x="1266.68178" stroke-width="4" stroke="#000" fill="#fff"/>
  <rect id="svg_65" height="40.90909" width="47.27273" y="1120.04555" x="1289.40906" stroke-width="4" stroke="#000" fill="#fff"/>
  <rect id="svg_66" height="56.36364" width="94.54546" y="1153.68191" x="1381.22724" stroke-width="4" stroke="#000" fill="#fff"/>
  <rect id="svg_67" height="79.09091" width="37.27273" y="1222.77282" x="1264.8636" stroke-width="4" stroke="#000" fill="#fff"/>
  <rect id="svg_68" height="30.90909" width="67.27273" y="1121.86373" x="1172.13632" stroke-width="4" stroke="#000" fill="#fff"/>
  <rect id="svg_69" height="82.72728" width="42.72727" y="1128.22736" x="1113.9545" stroke-width="4" stroke="#000" fill="#fff"/>
  <rect id="svg_70" height="30" width="71.81818" y="1176.40918" x="1164.8636" stroke-width="4" stroke="#000" fill="#fff"/>
  <rect id="svg_71" height="47.27273" width="113.63637" y="1224.59101" x="1122.13632" stroke-width="4" stroke="#000" fill="#fff"/>
  <rect id="svg_72" height="51.81818" width="94.54546" y="1273.68192" x="1014.86359" stroke-width="4" stroke="#000" fill="#fff"/>
  <rect id="svg_73" height="62.72728" width="81.81819" y="1301.86374" x="1423.95452" stroke-width="4" stroke="#000" fill="#fff"/>
  <rect id="svg_74" height="24.54546" width="50.90909" y="1280.95464" x="1590.31816" stroke-width="4" stroke="#000" fill="#fff"/>
  <rect id="svg_75" height="66.36364" width="68.18182" y="1395.5001" x="1530.31816" stroke-width="4" stroke="#000" fill="#fff"/>
  <rect id="svg_76" height="50" width="53.63637" y="1113.68191" x="1587.59089" stroke-width="4" stroke="#000" fill="#fff"/>
  <rect id="svg_77" height="40" width="45.45455" y="1160.95464" x="1643.95453" stroke-width="4" stroke="#000" fill="#fff"/>
  <rect id="svg_78" height="188.18183" width="182.72728" y="1020.95463" x="339.40902" stroke-width="4" stroke="#000" fill="#fff"/>
  <rect id="svg_79" height="116.36364" width="116.36364" y="1008.22736" x="592.1363" stroke-width="4" stroke="#000" fill="#fff"/>
  <rect id="svg_80" height="70.90909" width="75.45455" y="1342.77283" x="240.3181" stroke-width="4" stroke="#000" fill="#fff"/>
  <rect id="svg_81" height="150.00001" width="93.63637" y="1312.77283" x="326.68174" stroke-width="4" stroke="#000" fill="#fff"/>
  <rect id="svg_82" height="45.45455" width="78.18182" y="1470.04556" x="318.49992" stroke-width="4" stroke="#000" fill="#fff"/>
  <path transform="rotate(89.8917 374.977 1601.89)" id="svg_87" d="m304.44087,1496.22257l208.18711,-2.85273l0,268.18183l-274.54547,0l0.48419,-92.55605l63.03434,1.19875l-1.87402,-124.20825l-62.40065,0.56398l0.07047,-104.31813l66.29993,0.23904l0.7441,53.75156z" opacity="undefined" stroke-width="4" stroke="#000" fill="#fff"/>
  <rect id="svg_88" height="50.90909" width="70.90909" y="1574.59102" x="103.04537" stroke-width="4" stroke="#000" fill="#fff"/>
  <rect id="svg_89" height="41.81818" width="71.81818" y="1412.77283" x="103.95446" stroke-width="4" stroke="#000" fill="#fff"/>
  <rect id="svg_90" height="56.36364" width="84.54546" y="1467.31829" x="102.13628" stroke-width="4" stroke="#000" fill="#fff"/>
  <rect id="svg_91" height="47.27273" width="67.27273" y="1250.95464" x="129.40901" stroke-width="4" stroke="#000" fill="#fff"/>
  <rect id="svg_92" height="62.72728" width="52.72727" y="1235.5001" x="222.13628" stroke-width="4" stroke="#000" fill="#fff"/>
  <rect id="svg_93" height="34.54546" width="81.81819" y="510.95461" x="484.86357" stroke-width="4" stroke="#000" fill="#fff"/>
  <rect id="svg_94" height="135.45455" width="115.45455" y="15.50005" x="308.49992" stroke-width="4" stroke="#000" fill="#fff"/>
  <rect id="svg_95" height="203.63637" width="141.81819" y="207.31823" x="335.77265" stroke-width="4" stroke="#000" fill="#fff"/>
  <rect id="svg_96" height="59.09091" width="89.09091" y="211.86369" x="506.68175" stroke-width="4" stroke="#000" fill="#fff"/>
  <rect stroke="#000" id="svg_97" height="114.54546" width="72.72727" y="296.40915" x="523.04538" stroke-width="4" fill="#fff"/>
 </g>

</svg>